<?xml version="1.0" encoding="UTF-8"?>
<svg id="Layer_2" data-name="Layer 2" xmlns="http://www.w3.org/2000/svg" viewBox="0 0 342.57 354.97">
  <defs>
    <style>
      .cls-1 {
        stroke: #f07c00;
        stroke-width: .21px;
      }

      .cls-1, .cls-2, .cls-3 {
        fill: none;
      }

      .cls-4, .cls-5 {
        fill-rule: evenodd;
      }

      .cls-4, .cls-6 {
        fill: #f07c00;
      }

      .cls-7 {
        font-family: TimesNewRomanPSMT, 'Times New Roman';
        font-size: 12px;
      }

      .cls-2 {
        stroke: #1b1918;
        stroke-width: .57px;
      }

      .cls-3 {
        stroke: #fff;
        stroke-width: .5px;
      }

      .cls-5, .cls-8 {
        fill: #1b1918;
      }
    </style>
  </defs>
  <g id="Layer_1-2" data-name="Layer 1">
    <g>
      <path class="cls-5" d="m193.32,242.61l25-101.89h-20.79l-24.3,101.63c-6.25-.65-12.27-1.82-18.06-3.4l25.09-102.53h111.04c.09,1.68.13,3.38.13,5.08,0,53.05-43.05,97.04-98.12,101.11ZM86.65,102.35h120.13l-2.38,9.88h21l7.38-29.73H98.28c19.69-26.2,51.66-42.47,86.63-42.47,49.71,0,91.55,32.6,103.27,76.5h-125.11l-27.59,114.88c-47.07-23.5-70.98-78.91-48.82-129.07ZM184.9,24.98c-67.47,0-122.34,52.31-122.34,116.51s56.8,118.39,126.07,116.46c65.86-1.89,118.6-53.45,118.6-116.46S252.36,24.98,184.9,24.98Z"/>
      <path class="cls-1" d="m193.32,242.61l25-101.89h-20.79l-24.3,101.63c-6.25-.65-12.27-1.82-18.06-3.4l25.09-102.53h111.04c.09,1.68.13,3.38.13,5.08,0,53.05-43.05,97.04-98.12,101.11ZM86.65,102.35h120.13l-2.38,9.88h21l7.38-29.73H98.28c19.69-26.2,51.66-42.47,86.63-42.47,49.71,0,91.55,32.6,103.27,76.5h-125.11l-27.59,114.88c-47.07-23.5-70.98-78.91-48.82-129.07ZM184.9,24.98c-67.47,0-122.34,52.31-122.34,116.51s56.8,118.39,126.07,116.46c65.86-1.89,118.6-53.45,118.6-116.46S252.36,24.98,184.9,24.98Z"/>
      <polygon class="cls-4" points="201.71 115.39 226.07 115.39 220.91 137.56 196.39 137.56 201.71 115.39"/>
      <polygon class="cls-3" points="201.71 115.39 226.07 115.39 220.91 137.56 196.39 137.56 201.71 115.39"/>
      <g>
        <path class="cls-6" d="m10.44,302.88c-1.46,0-2.67.04-3.62.12-.95.08-1.75.34-2.38.78-.63.44-1.15,1.13-1.57,2.07s-.81,2.27-1.2,3.97l-1.68-.17c0-.09,0-.34.02-.74s.03-.89.07-1.45c.03-.56.07-1.18.1-1.85s.07-1.33.12-1.97c.04-.64.09-1.24.13-1.79.04-.55.09-.98.13-1.3.02-.34.22-.5.61-.5,2.04.04,4,.08,5.86.1,1.86.02,3.58.03,5.15.03h11.22c1.57,0,3.3-.01,5.19-.03s3.85-.06,5.9-.1c.31,0,.49.17.54.5.04.32.08.75.12,1.3.03.55.07,1.14.1,1.79s.06,1.3.08,1.97c.02.67.04,1.29.05,1.85.01.56.02,1.04.03,1.45s.02.65.02.74l-1.68.17c-.38-1.71-.77-3.03-1.16-3.97-.39-.94-.89-1.63-1.5-2.07s-1.38-.7-2.31-.78c-.93-.08-2.14-.12-3.62-.12h-4.31v35.41c0,.54-.27.85-.81.94-.38.07-.8.13-1.26.19-.46.06-.91.1-1.35.13s-.84.06-1.21.07-.65.02-.83.02c-.54,0-.81-.28-.81-.84v-35.91h-4.14Z"/>
        <path class="cls-6" d="m37.19,315.85c1.21-.34,2.34-.62,3.37-.86,1.03-.24,1.95-.43,2.75-.59.8-.16,1.45-.27,1.95-.34.51-.07.84-.1.99-.1.72,0,1.08.4,1.08,1.21v1.72c.76-.43,1.55-.83,2.36-1.21.81-.38,1.6-.71,2.38-.99s1.52-.5,2.22-.66,1.33-.24,1.87-.24c.61,0,1.14.11,1.6.32.46.21.85.5,1.18.86.33.36.57.76.72,1.21s.24.91.24,1.38-.08.97-.25,1.43c-.17.46-.43.87-.77,1.23-.35.36-.78.65-1.3.86-.52.21-1.12.32-1.82.32h-.71c-.11,0-.24,0-.37-.02-.13-.01-.26-.03-.37-.05v-.74c0-1.03-.21-1.76-.62-2.17-.42-.42-.95-.62-1.6-.62s-1.43.15-2.27.44c-.84.29-1.67.66-2.48,1.11v18.93c0,.54-.27.85-.81.94-.38.07-.79.13-1.23.19s-.86.1-1.26.13-.77.06-1.11.07-.6.02-.77.02c-.54,0-.81-.28-.81-.84v-18.36c0-1.19-.19-2-.57-2.44-.38-.44-.98-.66-1.79-.66-.25,0-.49,0-.72.02-.24.01-.52.05-.86.12l-.2-1.62Z"/>
        <path class="cls-6" d="m60.98,315.85c1.21-.34,2.34-.62,3.37-.86,1.03-.24,1.95-.43,2.75-.59.8-.16,1.45-.27,1.95-.34.51-.07.84-.1.99-.1.72,0,1.08.4,1.08,1.21v23.11c0,.54-.27.85-.81.94-.38.07-.79.13-1.23.19s-.86.1-1.26.13-.77.06-1.11.07-.6.02-.77.02c-.54,0-.81-.28-.81-.84v-18.36c0-1.19-.19-2-.57-2.44-.38-.44-.98-.66-1.79-.66-.25,0-.49,0-.72.02-.24.01-.52.05-.86.12l-.2-1.62Zm10.34-12.37c0,1.21-.32,2.09-.96,2.63s-1.57.81-2.78.81c-1.01,0-1.79-.3-2.32-.91s-.81-1.45-.81-2.53c0-1.21.33-2.08.99-2.61s1.6-.79,2.81-.79c1.01,0,1.77.3,2.29.89.52.6.77,1.43.77,2.51Z"/>
        <path class="cls-6" d="m76.41,315.85c1.21-.34,2.34-.62,3.37-.86,1.03-.24,1.95-.43,2.75-.59.8-.16,1.45-.27,1.95-.34.51-.07.84-.1.99-.1.72,0,1.08.4,1.08,1.21v1.72c.76-.43,1.55-.83,2.36-1.21.81-.38,1.6-.71,2.38-.99s1.52-.5,2.22-.66,1.33-.24,1.87-.24c.61,0,1.14.11,1.6.32.46.21.85.5,1.18.86.33.36.57.76.72,1.21s.24.91.24,1.38-.08.97-.25,1.43c-.17.46-.43.87-.77,1.23-.35.36-.78.65-1.3.86-.52.21-1.12.32-1.82.32h-.71c-.11,0-.24,0-.37-.02-.13-.01-.26-.03-.37-.05v-.74c0-1.03-.21-1.76-.62-2.17-.42-.42-.95-.62-1.6-.62s-1.43.15-2.27.44c-.84.29-1.67.66-2.48,1.11v18.93c0,.54-.27.85-.81.94-.38.07-.79.13-1.23.19s-.86.1-1.26.13-.77.06-1.11.07-.6.02-.77.02c-.54,0-.81-.28-.81-.84v-18.36c0-1.19-.19-2-.57-2.44-.38-.44-.98-.66-1.79-.66-.25,0-.49,0-.72.02-.24.01-.52.05-.86.12l-.2-1.62Z"/>
        <path class="cls-6" d="m102.72,316.59c1.17-.47,2.32-.89,3.45-1.25s2.2-.66,3.2-.89c1-.24,1.91-.42,2.73-.54.82-.12,1.5-.19,2.04-.19,1.62,0,2.98.19,4.08.56,1.1.37,1.99.96,2.66,1.77s1.16,1.84,1.45,3.08c.29,1.25.43,2.75.4,4.5l-.17,10.98c-.02.7.02,1.35.13,1.95s.24,1.2.37,1.79c.02.02.03.11.03.27,0,.34-.22.54-.67.61-.29.07-.62.13-.99.19s-.75.1-1.13.13-.76.06-1.15.07-.72.02-1.01.02c-.25,0-.43-.07-.56-.2-.12-.13-.22-.34-.29-.61l-.44-1.62c-.85.38-1.73.74-2.63,1.06-.9.33-1.76.61-2.58.84-.82.24-1.57.42-2.24.56s-1.22.2-1.65.2c-1.19,0-2.22-.22-3.1-.66-.88-.44-1.6-.99-2.16-1.65-.56-.66-.98-1.39-1.25-2.19-.27-.8-.4-1.55-.4-2.27,0-1.28.23-2.36.69-3.25.46-.89,1.08-1.62,1.87-2.21.7-.52,1.51-.94,2.44-1.28.93-.34,1.96-.6,3.08-.79,1.12-.19,2.34-.33,3.64-.42,1.3-.09,2.67-.16,4.11-.2l.03-1.14c.02-1.03-.04-1.96-.19-2.78-.15-.82-.41-1.51-.79-2.07-.38-.56-.9-.99-1.55-1.28-.65-.29-1.47-.44-2.46-.44-1.21,0-2.48.13-3.79.4s-2.81.67-4.5,1.21l-.74-2.26Zm13.95,10.65c-1.06.07-2.04.13-2.96.19-.92.06-1.76.14-2.53.25-.76.11-1.44.29-2.02.52-.58.24-1.06.57-1.42.99-.27.31-.49.71-.67,1.18-.18.47-.27.99-.27,1.55,0,.47.07.96.22,1.45s.4.95.77,1.36.87.76,1.5,1.03c.63.27,1.43.4,2.39.4.13,0,.35-.02.66-.07s.67-.12,1.11-.22.93-.24,1.47-.42c.54-.18,1.09-.4,1.65-.67l.1-7.55Z"/>
        <path class="cls-6" d="m127.52,315.85c1.21-.34,2.33-.62,3.35-.86s1.92-.43,2.7-.59c.77-.16,1.41-.27,1.9-.34.49-.07.82-.1.98-.1.67,0,1.04.4,1.11,1.21l.1,1.42c1.03-.38,2.07-.74,3.12-1.08s2.04-.63,2.98-.89c.94-.26,1.81-.46,2.59-.61s1.45-.22,1.99-.22c1.28,0,2.38.2,3.29.61s1.66.97,2.24,1.69,1.01,1.59,1.28,2.61.4,2.15.4,3.39l-.17,16.21c0,.54-.27.85-.81.94-.36.07-.76.13-1.2.19s-.87.1-1.28.13c-.42.03-.8.06-1.15.07-.35.01-.6.02-.76.02-.54,0-.81-.28-.81-.84l.17-13.41v-.5c0-1.21-.1-2.27-.29-3.18-.19-.91-.51-1.68-.96-2.31s-1.03-1.1-1.75-1.41-1.62-.47-2.7-.47c-.4,0-1.16.11-2.27.34s-2.42.66-3.92,1.31v19.14c0,.54-.27.85-.81.94-.36.07-.76.13-1.2.19s-.86.1-1.28.13-.8.06-1.15.07-.6.02-.76.02c-.54,0-.81-.28-.81-.84v-18.36c0-1.19-.19-2-.57-2.44-.38-.44-.99-.66-1.82-.66-.22,0-.46,0-.69.02-.24.01-.52.05-.86.12l-.2-1.62Z"/>
        <path class="cls-6" d="m181.8,317.16c.7.79,1.23,1.66,1.6,2.61.37.96.56,1.97.56,3.05,0,1.46-.29,2.79-.86,3.98-.57,1.19-1.38,2.21-2.43,3.07s-2.29,1.52-3.72,1.99-3.02.71-4.75.71c-1.42,0-2.57-.15-3.47-.44-.34.43-.67.85-.99,1.28-.33.43-.49.87-.49,1.31,0,.54.31.96.93,1.26.62.3,1.37.53,2.26.69.89.16,1.82.26,2.81.3.99.05,1.86.07,2.63.07,1.37,0,2.73.09,4.09.27,1.36.18,2.58.51,3.66.98,1.08.47,1.96,1.12,2.63,1.96.67.83,1.01,1.9,1.01,3.2,0,1.24-.29,2.38-.86,3.42-.57,1.04-1.32,1.99-2.24,2.85s-1.97,1.61-3.15,2.27-2.39,1.21-3.62,1.65-2.44.77-3.62.99c-1.18.22-2.22.34-3.12.34-1.06,0-2.18-.15-3.37-.44-1.19-.29-2.29-.73-3.29-1.31s-1.83-1.31-2.49-2.17c-.66-.86-.99-1.88-.99-3.05,0-.7.12-1.36.35-2,.24-.64.54-1.27.93-1.89.38-.62.83-1.23,1.35-1.84.52-.61,1.06-1.22,1.62-1.85-.31-.16-.61-.37-.89-.64s-.52-.57-.72-.89c-.2-.33-.37-.66-.49-.99-.12-.34-.19-.66-.19-.98,0-.7.31-1.48.94-2.34.63-.86,1.66-1.97,3.1-3.32-1.55-.79-2.76-1.88-3.62-3.27s-1.3-2.94-1.3-4.65c0-1.41.29-2.71.86-3.89s1.38-2.18,2.43-3.02c1.04-.83,2.28-1.48,3.71-1.94,1.43-.46,3-.69,4.73-.69,1.35,0,2.59.17,3.74.5,1.15.34,2.16.8,3.03,1.38,2.18-.56,3.89-.99,5.12-1.28,1.23-.29,2.01-.44,2.32-.44.63,0,.94.34.94,1.01,0,.43-.02.86-.07,1.31-.05.45-.1.93-.17,1.45l-6.43-.57Zm-14.82,24.19c-.58.81-1.03,1.53-1.35,2.16-.31.63-.47,1.32-.47,2.09,0,.94.3,1.74.89,2.39s1.35,1.18,2.26,1.58,1.89.69,2.95.86c1.06.17,2.06.25,3,.25.76,0,1.62-.08,2.56-.24.94-.16,1.82-.42,2.63-.79s1.49-.87,2.04-1.48c.55-.62.83-1.4.83-2.34,0-.81-.24-1.45-.71-1.94-.47-.48-1.08-.85-1.84-1.11-.75-.26-1.61-.43-2.58-.51-.97-.08-1.93-.12-2.9-.12-.52,0-1.08-.01-1.7-.03-.62-.02-1.25-.07-1.9-.13-.65-.07-1.3-.15-1.94-.25-.64-.1-1.23-.23-1.77-.39Zm6.03-11.56c.88,0,1.63-.16,2.27-.47s1.16-.74,1.57-1.26c.4-.53.71-1.15.91-1.85.2-.71.3-1.45.3-2.24,0-.9-.11-1.79-.32-2.68-.21-.89-.54-1.69-.99-2.39-.45-.71-1.03-1.27-1.74-1.7s-1.54-.64-2.51-.64c-.88,0-1.63.16-2.26.49-.63.33-1.15.76-1.55,1.3s-.7,1.17-.89,1.89-.29,1.47-.29,2.26c0,.88.1,1.75.3,2.63s.52,1.66.96,2.36c.44.7,1,1.26,1.7,1.68.7.43,1.54.64,2.53.64Z"/>
        <path class="cls-6" d="m193.15,316.59c1.17-.47,2.32-.89,3.45-1.25,1.13-.36,2.2-.66,3.2-.89,1-.24,1.91-.42,2.73-.54.82-.12,1.5-.19,2.04-.19,1.62,0,2.98.19,4.08.56,1.1.37,1.99.96,2.66,1.77s1.16,1.84,1.45,3.08c.29,1.25.43,2.75.4,4.5l-.17,10.98c-.02.7.02,1.35.13,1.95.11.61.24,1.2.37,1.79.02.02.03.11.03.27,0,.34-.23.54-.67.61-.29.07-.62.13-.99.19-.37.06-.75.1-1.13.13s-.76.06-1.15.07-.72.02-1.01.02c-.25,0-.43-.07-.56-.2-.12-.13-.22-.34-.29-.61l-.44-1.62c-.85.38-1.73.74-2.63,1.06-.9.33-1.76.61-2.58.84-.82.24-1.57.42-2.24.56s-1.22.2-1.65.2c-1.19,0-2.22-.22-3.1-.66-.88-.44-1.59-.99-2.16-1.65s-.98-1.39-1.25-2.19c-.27-.8-.4-1.55-.4-2.27,0-1.28.23-2.36.69-3.25.46-.89,1.08-1.62,1.87-2.21.7-.52,1.51-.94,2.44-1.28.93-.34,1.96-.6,3.08-.79s2.34-.33,3.64-.42c1.3-.09,2.67-.16,4.11-.2l.03-1.14c.02-1.03-.04-1.96-.19-2.78-.15-.82-.41-1.51-.79-2.07-.38-.56-.9-.99-1.55-1.28-.65-.29-1.47-.44-2.46-.44-1.21,0-2.48.13-3.79.4-1.31.27-2.81.67-4.5,1.21l-.74-2.26Zm13.95,10.65c-1.06.07-2.04.13-2.96.19-.92.06-1.76.14-2.53.25-.76.11-1.44.29-2.02.52s-1.06.57-1.42.99c-.27.31-.49.71-.67,1.18s-.27.99-.27,1.55c0,.47.07.96.22,1.45.15.49.4.95.78,1.36.37.42.87.76,1.5,1.03.63.27,1.43.4,2.39.4.13,0,.35-.02.66-.07.3-.04.67-.12,1.11-.22.44-.1.93-.24,1.46-.42.54-.18,1.09-.4,1.65-.67l.1-7.55Z"/>
      </g>
      <text class="cls-7" transform="translate(216.87 339.2)"><tspan x="0" y="0"> </tspan></text>
      <g>
        <path d="m220.91,300.62c1.21-.22,2.36-.42,3.45-.57,1.09-.16,2.05-.28,2.9-.37.84-.09,1.54-.16,2.11-.2.56-.04.92-.07,1.08-.07.72,0,1.08.36,1.08,1.08v37.8c0,.54-.27.85-.81.94-.38.07-.8.13-1.26.19-.46.06-.91.1-1.35.13-.44.03-.84.06-1.21.07-.37.01-.65.02-.83.02-.54,0-.81-.28-.81-.84v-33.35c0-.63-.06-1.14-.19-1.53-.12-.39-.3-.7-.54-.93-.24-.22-.52-.38-.84-.47-.33-.09-.69-.13-1.1-.13-.49,0-.99.03-1.48.1l-.2-1.85Z"/>
        <path d="m238,315.85c1.21-.34,2.33-.62,3.35-.86,1.02-.24,1.92-.43,2.7-.59.77-.16,1.41-.27,1.9-.34.49-.07.82-.1.98-.1.67,0,1.04.4,1.11,1.21l.1,1.42c1.03-.38,2.07-.74,3.12-1.08,1.04-.34,2.04-.63,2.98-.89.94-.26,1.81-.46,2.59-.61s1.45-.22,1.99-.22c1.28,0,2.38.2,3.28.61.91.4,1.66.97,2.24,1.69.58.72,1.01,1.59,1.28,2.61s.4,2.15.4,3.39l-.17,16.21c0,.54-.27.85-.81.94-.36.07-.76.13-1.2.19-.44.06-.86.1-1.28.13-.42.03-.8.06-1.15.07-.35.01-.6.02-.76.02-.54,0-.81-.28-.81-.84l.17-13.41v-.5c0-1.21-.1-2.27-.29-3.18-.19-.91-.51-1.68-.96-2.31s-1.03-1.1-1.75-1.41-1.62-.47-2.7-.47c-.4,0-1.16.11-2.27.34-1.11.22-2.42.66-3.93,1.31v19.14c0,.54-.27.85-.81.94-.36.07-.76.13-1.2.19-.44.06-.87.1-1.28.13-.42.03-.8.06-1.15.07-.35.01-.6.02-.76.02-.54,0-.81-.28-.81-.84v-18.36c0-1.19-.19-2-.57-2.44-.38-.44-.99-.66-1.82-.66-.22,0-.46,0-.69.02-.24.01-.52.05-.86.12l-.2-1.62Z"/>
        <path d="m270.81,315.38c.58-.04,1.22-.09,1.92-.13s1.38-.09,2.05-.13v-4.85c0-1.64.1-3.11.3-4.41s.49-2.47.86-3.5c.37-1.03.82-1.95,1.35-2.75.53-.8,1.13-1.53,1.8-2.21,1.17-1.15,2.51-2.03,4.03-2.64,1.52-.62,3.13-.93,4.83-.93.74,0,1.52.08,2.34.24.82.16,1.57.42,2.26.79.68.37,1.25.85,1.7,1.43s.67,1.29.67,2.12c0,.63-.11,1.16-.32,1.58-.21.43-.5.78-.86,1.04-.36.27-.78.47-1.26.59-.48.12-1.01.19-1.57.19-.45,0-.92-.03-1.42-.1v-.71c0-.61-.03-1.17-.1-1.7-.07-.53-.22-.98-.46-1.35-.24-.37-.58-.66-1.03-.88-.45-.21-1.04-.32-1.79-.32-1.15,0-2.07.26-2.78.79-.71.53-1.25,1.23-1.63,2.11-.38.88-.63,1.89-.76,3.03-.12,1.15-.19,2.34-.19,3.57v8.56c1.5-.07,2.89-.12,4.16-.15,1.27-.03,2.25-.05,2.95-.05.18,0,.35.06.5.18.16.12.22.32.2.59l-.13,2.09-7.68.03v20.79c0,.54-.27.85-.81.94-.38.07-.79.13-1.23.19-.44.06-.86.1-1.26.13s-.77.06-1.11.07-.6.02-.78.02c-.54,0-.81-.28-.81-.84v-21.26l-3.87.1-.1-2.26Z"/>
        <path d="m289.54,315.85c1.21-.34,2.34-.62,3.37-.86s1.95-.43,2.75-.59c.8-.16,1.45-.27,1.95-.34.5-.07.84-.1.99-.1.72,0,1.08.4,1.08,1.21v1.72c.76-.43,1.55-.83,2.36-1.21.81-.38,1.6-.71,2.38-.99.77-.28,1.52-.5,2.22-.66.71-.16,1.33-.24,1.87-.24.61,0,1.14.11,1.6.32.46.21.85.5,1.18.86.33.36.57.76.72,1.21s.24.91.24,1.38-.08.97-.25,1.43c-.17.46-.43.87-.78,1.23-.35.36-.78.65-1.3.86-.52.21-1.12.32-1.82.32h-.71c-.11,0-.24,0-.37-.02-.13-.01-.26-.03-.37-.05v-.74c0-1.03-.21-1.76-.62-2.17s-.95-.62-1.6-.62-1.43.15-2.27.44c-.84.29-1.67.66-2.48,1.11v18.93c0,.54-.27.85-.81.94-.38.07-.79.13-1.23.19-.44.06-.86.1-1.26.13s-.77.06-1.11.07-.6.02-.78.02c-.54,0-.81-.28-.81-.84v-18.36c0-1.19-.19-2-.57-2.44-.38-.44-.98-.66-1.79-.66-.25,0-.49,0-.72.02-.24.01-.52.05-.86.12l-.2-1.62Z"/>
        <path d="m315.85,316.59c1.17-.47,2.32-.89,3.45-1.25,1.13-.36,2.2-.66,3.2-.89,1-.24,1.91-.42,2.73-.54.82-.12,1.5-.19,2.04-.19,1.62,0,2.98.19,4.08.56,1.1.37,1.99.96,2.66,1.77s1.16,1.84,1.45,3.08c.29,1.25.43,2.75.4,4.5l-.17,10.98c-.02.7.02,1.35.13,1.95.11.61.24,1.2.37,1.79.02.02.03.11.03.27,0,.34-.23.54-.67.61-.29.07-.62.13-.99.19-.37.06-.75.1-1.13.13s-.76.06-1.15.07-.72.02-1.01.02c-.25,0-.43-.07-.56-.2-.12-.13-.22-.34-.29-.61l-.44-1.62c-.85.38-1.73.74-2.63,1.06-.9.33-1.76.61-2.58.84-.82.24-1.57.42-2.24.56s-1.22.2-1.65.2c-1.19,0-2.22-.22-3.1-.66-.88-.44-1.59-.99-2.16-1.65s-.98-1.39-1.25-2.19c-.27-.8-.4-1.55-.4-2.27,0-1.28.23-2.36.69-3.25.46-.89,1.08-1.62,1.87-2.21.7-.52,1.51-.94,2.44-1.28.93-.34,1.96-.6,3.08-.79s2.34-.33,3.64-.42c1.3-.09,2.67-.16,4.11-.2l.03-1.14c.02-1.03-.04-1.96-.19-2.78-.15-.82-.41-1.51-.79-2.07-.38-.56-.9-.99-1.55-1.28-.65-.29-1.47-.44-2.46-.44-1.21,0-2.48.13-3.79.4-1.31.27-2.81.67-4.5,1.21l-.74-2.26Zm13.95,10.65c-1.06.07-2.04.13-2.96.19-.92.06-1.76.14-2.53.25-.76.11-1.44.29-2.02.52s-1.06.57-1.42.99c-.27.31-.49.71-.67,1.18s-.27.99-.27,1.55c0,.47.07.96.22,1.45.15.49.4.95.78,1.36.37.42.87.76,1.5,1.03.63.27,1.43.4,2.39.4.13,0,.35-.02.66-.07.3-.04.67-.12,1.11-.22.44-.1.93-.24,1.46-.42.54-.18,1.09-.4,1.65-.67l.1-7.55Z"/>
      </g>
      <text class="cls-7" transform="translate(339.57 339.2)"><tspan x="0" y="0"> </tspan></text>
      <g>
        <path class="cls-8" d="m278.22,29.4v-13.26h-4.95v-1.77h11.92v1.77h-4.97v13.26h-1.99Z"/>
        <path class="cls-8" d="m287.17,29.4v-15.03h2.99l3.56,10.64c.33.99.57,1.73.72,2.23.17-.55.44-1.35.8-2.41l3.6-10.46h2.68v15.03h-1.92v-12.58l-4.37,12.58h-1.79l-4.35-12.8v12.8h-1.92Z"/>
      </g>
      <path class="cls-2" d="m286.9.28c11.94,0,21.61,9.68,21.61,21.62s-9.68,21.61-21.61,21.61-21.61-9.67-21.61-21.61S274.97.28,286.9.28Z"/>
    </g>
  </g>
</svg>