<?xml version="1.0" encoding="UTF-8"?>
<svg id="Layer_2" data-name="Layer 2" xmlns="http://www.w3.org/2000/svg" viewBox="0 0 434.61 66.28">
  <defs>
    <style>
      .cls-1 {
        stroke: #f07c00;
        stroke-width: .21px;
      }

      .cls-1, .cls-2, .cls-3 {
        fill: none;
      }

      .cls-4, .cls-5 {
        fill-rule: evenodd;
      }

      .cls-4, .cls-6 {
        fill: #f07c00;
      }

      .cls-2 {
        stroke: #1b1918;
        stroke-width: .57px;
      }

      .cls-3 {
        stroke: #fff;
        stroke-width: .5px;
      }

      .cls-5, .cls-7 {
        fill: #1b1918;
      }

      .cls-8 {
        font-family: TimesNewRomanPSMT, 'Times New Roman';
        font-size: 12.17px;
      }
    </style>
  </defs>
  <g id="Layer_1-2" data-name="Layer 1">
    <g>
      <g>
        <g>
          <path class="cls-6" d="m97.86,13.47c-1.48,0-2.7.04-3.67.12-.97.08-1.77.34-2.41.79-.64.44-1.17,1.14-1.59,2.1s-.83,2.3-1.21,4.03l-1.71-.17c0-.09,0-.34.02-.75s.03-.9.07-1.47c.03-.57.07-1.2.1-1.88s.07-1.35.12-2c.05-.65.09-1.25.14-1.81.05-.56.09-1,.14-1.32.02-.34.23-.51.61-.51,2.07.05,4.05.08,5.94.1,1.89.02,3.63.03,5.23.03h11.37c1.59,0,3.35-.01,5.26-.03s3.91-.06,5.98-.1c.32,0,.5.17.55.51.05.32.09.76.12,1.32.03.56.07,1.16.1,1.81s.06,1.31.09,2c.02.68.04,1.31.05,1.88.01.57.02,1.06.03,1.47s.02.66.02.75l-1.71.17c-.39-1.73-.78-3.07-1.18-4.03-.4-.96-.91-1.66-1.52-2.1s-1.4-.71-2.34-.79c-.95-.08-2.17-.12-3.67-.12h-4.37v35.9c0,.55-.27.87-.82.96-.39.07-.81.13-1.28.19-.47.06-.92.1-1.37.14s-.85.06-1.23.07-.65.02-.84.02c-.55,0-.82-.29-.82-.85V13.47h-4.2Z"/>
          <path class="cls-6" d="m124.99,26.62c1.23-.34,2.37-.63,3.42-.87,1.05-.24,1.98-.44,2.78-.6.81-.16,1.47-.27,1.98-.34.51-.07.85-.1,1.01-.1.73,0,1.09.41,1.09,1.23v1.74c.77-.43,1.57-.84,2.39-1.23.82-.39,1.62-.72,2.41-1.01s1.54-.51,2.25-.67,1.35-.24,1.9-.24c.61,0,1.16.11,1.62.32.47.22.86.51,1.2.87.33.36.57.77.73,1.23s.24.92.24,1.4-.09.98-.26,1.45c-.17.47-.43.88-.79,1.25-.35.36-.79.65-1.32.87-.52.22-1.14.32-1.84.32h-.72c-.11,0-.24,0-.38-.02-.14-.01-.26-.03-.38-.05v-.75c0-1.05-.21-1.78-.63-2.2-.42-.42-.96-.63-1.62-.63s-1.45.15-2.31.44c-.85.3-1.69.67-2.51,1.13v19.2c0,.55-.27.87-.82.96-.39.07-.8.13-1.25.19s-.87.1-1.28.14-.79.06-1.13.07-.6.02-.79.02c-.55,0-.82-.29-.82-.85v-18.62c0-1.21-.19-2.03-.58-2.48-.39-.44-.99-.67-1.81-.67-.25,0-.5,0-.73.02-.24.01-.53.05-.87.12l-.2-1.64Z"/>
          <path class="cls-6" d="m149.1,26.62c1.23-.34,2.37-.63,3.42-.87,1.05-.24,1.98-.44,2.78-.6.81-.16,1.47-.27,1.98-.34.51-.07.85-.1,1.01-.1.73,0,1.09.41,1.09,1.23v23.43c0,.55-.27.87-.82.96-.39.07-.8.13-1.25.19s-.87.1-1.28.14-.79.06-1.13.07-.6.02-.79.02c-.55,0-.82-.29-.82-.85v-18.62c0-1.21-.19-2.03-.58-2.48-.39-.44-.99-.67-1.81-.67-.25,0-.5,0-.73.02-.24.01-.53.05-.87.12l-.2-1.64Zm10.49-12.54c0,1.23-.32,2.12-.97,2.67s-1.59.82-2.82.82c-1.02,0-1.81-.31-2.36-.92s-.82-1.47-.82-2.56c0-1.23.34-2.11,1.01-2.65s1.62-.8,2.85-.8c1.02,0,1.8.3,2.32.9.52.6.79,1.45.79,2.54Z"/>
          <path class="cls-6" d="m164.75,26.62c1.23-.34,2.37-.63,3.42-.87,1.05-.24,1.98-.44,2.78-.6.81-.16,1.47-.27,1.98-.34.51-.07.85-.1,1.01-.1.73,0,1.09.41,1.09,1.23v1.74c.77-.43,1.57-.84,2.39-1.23.82-.39,1.62-.72,2.41-1.01s1.54-.51,2.25-.67,1.35-.24,1.9-.24c.61,0,1.16.11,1.62.32.47.22.86.51,1.2.87.33.36.57.77.73,1.23s.24.92.24,1.4-.09.98-.26,1.45c-.17.47-.43.88-.79,1.25-.35.36-.79.65-1.32.87-.52.22-1.14.32-1.84.32h-.72c-.11,0-.24,0-.38-.02-.14-.01-.26-.03-.38-.05v-.75c0-1.05-.21-1.78-.63-2.2-.42-.42-.96-.63-1.62-.63s-1.45.15-2.31.44c-.85.3-1.69.67-2.51,1.13v19.2c0,.55-.27.87-.82.96-.39.07-.8.13-1.25.19s-.87.1-1.28.14-.79.06-1.13.07-.6.02-.79.02c-.55,0-.82-.29-.82-.85v-18.62c0-1.21-.19-2.03-.58-2.48-.39-.44-.99-.67-1.81-.67-.25,0-.5,0-.73.02-.24.01-.53.05-.87.12l-.2-1.64Z"/>
          <path class="cls-6" d="m191.43,27.38c1.18-.48,2.35-.9,3.5-1.26s2.23-.67,3.25-.9c1.01-.24,1.94-.42,2.77-.55.83-.12,1.52-.19,2.07-.19,1.64,0,3.02.19,4.13.56,1.12.38,2.02.97,2.7,1.79s1.17,1.86,1.47,3.13c.3,1.26.43,2.78.41,4.56l-.17,11.14c-.02.71.02,1.37.14,1.98s.24,1.22.38,1.81c.02.02.03.11.03.27,0,.34-.23.55-.68.61-.3.07-.63.13-1.01.19s-.76.1-1.14.14-.77.06-1.16.07-.73.02-1.02.02c-.25,0-.44-.07-.56-.2-.13-.14-.22-.34-.29-.62l-.44-1.64c-.87.39-1.75.75-2.66,1.08-.91.33-1.78.61-2.61.85-.83.24-1.59.43-2.27.56s-1.24.2-1.67.2c-1.21,0-2.25-.22-3.14-.67-.89-.44-1.62-1-2.19-1.67-.57-.67-.99-1.41-1.26-2.22-.27-.81-.41-1.58-.41-2.31,0-1.3.23-2.4.7-3.3.47-.9,1.1-1.64,1.9-2.24.71-.52,1.53-.96,2.48-1.3.95-.34,1.99-.61,3.13-.8,1.14-.19,2.37-.34,3.69-.43,1.32-.09,2.71-.16,4.17-.21l.03-1.16c.02-1.05-.04-1.99-.19-2.82-.15-.83-.42-1.53-.8-2.1-.39-.57-.91-1-1.57-1.3-.66-.3-1.49-.44-2.49-.44-1.23,0-2.51.14-3.84.41s-2.85.68-4.56,1.23l-.75-2.29Zm14.14,10.79c-1.07.07-2.07.13-3.01.19-.93.06-1.79.14-2.56.26-.77.11-1.46.29-2.05.53-.59.24-1.07.58-1.43,1.01-.27.32-.5.72-.68,1.2-.18.48-.27,1-.27,1.57,0,.48.07.97.22,1.47s.41.96.79,1.38.88.77,1.52,1.04c.64.27,1.45.41,2.43.41.14,0,.36-.02.67-.07s.68-.12,1.13-.22.94-.24,1.49-.43c.55-.18,1.1-.41,1.67-.68l.1-7.65Z"/>
          <path class="cls-6" d="m216.57,26.62c1.23-.34,2.36-.63,3.4-.87s1.95-.44,2.73-.6c.79-.16,1.43-.27,1.93-.34.5-.07.83-.1.99-.1.68,0,1.06.41,1.13,1.23l.1,1.43c1.05-.39,2.1-.75,3.16-1.09s2.07-.64,3.02-.91c.96-.26,1.83-.47,2.63-.61s1.47-.22,2.02-.22c1.3,0,2.41.2,3.33.61s1.68.98,2.27,1.71,1.02,1.61,1.3,2.65.41,2.18.41,3.43l-.17,16.43c0,.55-.27.87-.82.96-.36.07-.77.13-1.21.19s-.88.1-1.3.14c-.42.03-.81.06-1.16.07-.35.01-.61.02-.77.02-.55,0-.82-.29-.82-.85l.17-13.6v-.51c0-1.23-.1-2.31-.29-3.23-.19-.92-.52-1.7-.97-2.34s-1.05-1.11-1.78-1.43-1.64-.48-2.73-.48c-.41,0-1.18.11-2.31.34s-2.45.67-3.98,1.33v19.4c0,.55-.27.87-.82.96-.36.07-.77.13-1.21.19s-.88.1-1.3.14-.81.06-1.16.07-.61.02-.77.02c-.55,0-.82-.29-.82-.85v-18.62c0-1.21-.19-2.03-.58-2.48-.39-.44-1-.67-1.84-.67-.23,0-.46,0-.7.02-.24.01-.53.05-.87.12l-.2-1.64Z"/>
          <path class="cls-6" d="m271.6,27.96c.71.8,1.25,1.68,1.62,2.65.38.97.56,2,.56,3.09,0,1.48-.29,2.82-.87,4.03-.58,1.21-1.4,2.24-2.46,3.11s-2.32,1.54-3.77,2.01-3.06.72-4.82.72c-1.43,0-2.61-.15-3.52-.44-.34.43-.68.87-1.01,1.3-.33.43-.5.88-.5,1.33,0,.55.31.97.94,1.28.63.31,1.39.54,2.29.7.9.16,1.85.26,2.85.31,1,.05,1.89.07,2.66.07,1.39,0,2.77.09,4.15.27,1.38.18,2.61.51,3.71.99,1.09.48,1.98,1.14,2.67,1.98.68.84,1.02,1.92,1.02,3.24,0,1.25-.29,2.41-.87,3.47-.58,1.06-1.34,2.02-2.27,2.89s-2,1.63-3.19,2.31-2.42,1.23-3.67,1.67-2.48.78-3.67,1.01c-1.2.23-2.25.34-3.16.34-1.07,0-2.21-.15-3.42-.44-1.21-.3-2.32-.74-3.33-1.33s-1.86-1.33-2.53-2.2c-.67-.88-1.01-1.91-1.01-3.09,0-.71.12-1.38.36-2.03.24-.65.55-1.29.94-1.91.39-.63.84-1.25,1.37-1.86.52-.62,1.07-1.24,1.64-1.88-.32-.16-.62-.38-.91-.65s-.53-.57-.73-.9c-.2-.33-.37-.67-.5-1.01-.13-.34-.19-.67-.19-.99,0-.7.32-1.5.96-2.37.64-.88,1.68-2,3.14-3.36-1.57-.8-2.8-1.9-3.67-3.31s-1.31-2.98-1.31-4.72c0-1.43.29-2.75.87-3.94s1.4-2.21,2.46-3.06c1.06-.84,2.31-1.5,3.76-1.96,1.45-.47,3.05-.7,4.8-.7,1.37,0,2.63.17,3.79.51,1.16.34,2.19.81,3.07,1.4,2.21-.57,3.94-1,5.19-1.3,1.25-.3,2.04-.44,2.36-.44.64,0,.96.34.96,1.02,0,.43-.02.88-.07,1.33-.05.46-.1.95-.17,1.47l-6.52-.58Zm-15.03,24.53c-.59.82-1.05,1.55-1.37,2.19-.32.64-.48,1.34-.48,2.12,0,.96.3,1.76.9,2.42s1.37,1.2,2.29,1.61,1.92.7,2.99.87c1.07.17,2.08.26,3.04.26.77,0,1.64-.08,2.6-.24.96-.16,1.84-.43,2.66-.8s1.51-.88,2.07-1.5c.56-.63.84-1.42.84-2.37,0-.82-.24-1.47-.72-1.96-.48-.49-1.1-.87-1.86-1.13-.76-.26-1.63-.43-2.61-.51-.98-.08-1.96-.12-2.94-.12-.52,0-1.1-.01-1.73-.03-.63-.02-1.27-.07-1.93-.14-.66-.07-1.32-.15-1.96-.26-.65-.1-1.25-.23-1.79-.39Zm6.11-11.72c.89,0,1.66-.16,2.31-.48s1.18-.75,1.59-1.28c.41-.53.72-1.16.92-1.88.2-.72.31-1.47.31-2.27,0-.91-.11-1.82-.32-2.71-.22-.9-.55-1.71-1.01-2.43-.46-.72-1.04-1.29-1.76-1.72s-1.57-.65-2.54-.65c-.89,0-1.65.17-2.29.5-.64.33-1.16.77-1.57,1.32s-.71,1.18-.91,1.91-.29,1.49-.29,2.29c0,.89.1,1.78.31,2.66s.53,1.69.97,2.39c.44.71,1.02,1.28,1.73,1.71.71.43,1.56.65,2.56.65Z"/>
          <path class="cls-6" d="m283.11,27.38c1.18-.48,2.35-.9,3.5-1.26,1.15-.36,2.23-.67,3.24-.9,1.01-.24,1.94-.42,2.77-.55.83-.12,1.52-.19,2.07-.19,1.64,0,3.02.19,4.13.56,1.12.38,2.02.97,2.7,1.79s1.17,1.86,1.47,3.13c.3,1.26.43,2.78.41,4.56l-.17,11.14c-.02.71.02,1.37.14,1.98.11.61.24,1.22.38,1.81.02.02.03.11.03.27,0,.34-.23.55-.68.61-.3.07-.63.13-1.01.19-.38.06-.76.1-1.14.14s-.77.06-1.16.07-.73.02-1.02.02c-.25,0-.44-.07-.56-.2-.13-.14-.22-.34-.29-.62l-.44-1.64c-.87.39-1.75.75-2.66,1.08-.91.33-1.78.61-2.61.85-.83.24-1.59.43-2.27.56s-1.24.2-1.67.2c-1.21,0-2.25-.22-3.14-.67-.89-.44-1.62-1-2.19-1.67s-.99-1.41-1.26-2.22c-.27-.81-.41-1.58-.41-2.31,0-1.3.23-2.4.7-3.3.47-.9,1.1-1.64,1.9-2.24.71-.52,1.53-.96,2.48-1.3.94-.34,1.99-.61,3.13-.8s2.37-.34,3.69-.43c1.32-.09,2.71-.16,4.17-.21l.03-1.16c.02-1.05-.04-1.99-.19-2.82-.15-.83-.41-1.53-.8-2.1-.39-.57-.91-1-1.57-1.3-.66-.3-1.49-.44-2.49-.44-1.23,0-2.51.14-3.84.41-1.33.27-2.85.68-4.56,1.23l-.75-2.29Zm14.14,10.79c-1.07.07-2.07.13-3.01.19-.93.06-1.79.14-2.56.26-.77.11-1.46.29-2.05.53s-1.07.58-1.43,1.01c-.27.32-.5.72-.68,1.2s-.27,1-.27,1.57c0,.48.07.97.22,1.47.15.5.41.96.79,1.38.38.42.88.77,1.52,1.04.64.27,1.45.41,2.42.41.14,0,.36-.02.67-.07.31-.05.68-.12,1.13-.22.44-.1.94-.24,1.49-.43.55-.18,1.11-.41,1.67-.68l.1-7.65Z"/>
        </g>
        <text class="cls-8" transform="translate(307.16 50.3)"><tspan x="0" y="0"> </tspan></text>
        <g>
          <path d="m311.26,11.18c1.23-.23,2.4-.42,3.5-.58,1.1-.16,2.08-.29,2.94-.38.85-.09,1.57-.16,2.13-.2.57-.04.93-.07,1.09-.07.73,0,1.09.36,1.09,1.09v38.33c0,.55-.27.87-.82.96-.39.07-.81.13-1.28.19-.47.06-.92.1-1.37.14-.44.03-.85.06-1.23.07-.38.01-.65.02-.84.02-.55,0-.82-.29-.82-.85V16.07c0-.64-.06-1.16-.19-1.55-.13-.4-.31-.71-.55-.94-.24-.23-.52-.39-.85-.48-.33-.09-.7-.14-1.11-.14-.5,0-1,.03-1.5.1l-.2-1.88Z"/>
          <path d="m328.58,26.62c1.23-.34,2.36-.63,3.4-.87,1.04-.24,1.95-.44,2.73-.6.79-.16,1.43-.27,1.93-.34.5-.07.83-.1.99-.1.68,0,1.06.41,1.13,1.23l.1,1.43c1.05-.39,2.1-.75,3.16-1.09,1.06-.34,2.07-.64,3.02-.91.96-.26,1.83-.47,2.63-.61s1.47-.22,2.02-.22c1.3,0,2.41.2,3.33.61.92.41,1.68.98,2.27,1.71.59.73,1.02,1.61,1.3,2.65s.41,2.18.41,3.43l-.17,16.43c0,.55-.27.87-.82.96-.36.07-.77.13-1.21.19-.44.06-.88.1-1.3.14-.42.03-.81.06-1.16.07-.35.01-.61.02-.77.02-.55,0-.82-.29-.82-.85l.17-13.6v-.51c0-1.23-.1-2.31-.29-3.23-.19-.92-.52-1.7-.97-2.34s-1.05-1.11-1.78-1.43-1.64-.48-2.73-.48c-.41,0-1.18.11-2.31.34-1.13.23-2.45.67-3.98,1.33v19.4c0,.55-.27.87-.82.96-.36.07-.77.13-1.21.19-.44.06-.88.1-1.3.14-.42.03-.81.06-1.16.07-.35.01-.61.02-.77.02-.55,0-.82-.29-.82-.85v-18.62c0-1.21-.19-2.03-.58-2.48-.39-.44-1-.67-1.84-.67-.23,0-.46,0-.7.02-.24.01-.53.05-.87.12l-.2-1.64Z"/>
          <path d="m361.85,26.15c.59-.05,1.24-.09,1.95-.14s1.4-.09,2.08-.14v-4.92c0-1.66.1-3.15.31-4.47s.5-2.51.87-3.55c.38-1.05.83-1.98,1.37-2.78.53-.81,1.14-1.55,1.83-2.24,1.18-1.16,2.55-2.06,4.08-2.68,1.54-.63,3.17-.94,4.9-.94.75,0,1.54.08,2.37.24.83.16,1.59.43,2.29.8.69.38,1.27.86,1.72,1.45s.68,1.31.68,2.15c0,.64-.11,1.17-.32,1.61-.22.43-.51.79-.87,1.06-.37.27-.79.47-1.28.6-.49.12-1.02.19-1.59.19-.46,0-.93-.03-1.43-.1v-.72c0-.62-.03-1.19-.1-1.72-.07-.54-.22-.99-.46-1.37-.24-.38-.59-.67-1.04-.89-.46-.22-1.06-.32-1.81-.32-1.16,0-2.1.27-2.82.8-.72.53-1.27,1.25-1.66,2.13-.39.89-.64,1.91-.77,3.07-.13,1.16-.19,2.37-.19,3.62v8.68c1.53-.07,2.93-.12,4.22-.15,1.29-.03,2.28-.05,2.99-.05.18,0,.35.06.51.19.16.13.23.32.2.6l-.14,2.12-7.79.03v21.08c0,.55-.27.87-.82.96-.39.07-.8.13-1.25.19-.44.06-.87.1-1.28.14s-.79.06-1.13.07-.6.02-.79.02c-.55,0-.82-.29-.82-.85v-21.55l-3.93.1-.1-2.29Z"/>
          <path d="m380.84,26.62c1.23-.34,2.37-.63,3.42-.87s1.98-.44,2.78-.6c.81-.16,1.47-.27,1.98-.34.51-.07.85-.1,1.01-.1.73,0,1.09.41,1.09,1.23v1.74c.77-.43,1.57-.84,2.39-1.23.82-.39,1.62-.72,2.41-1.01.79-.29,1.54-.51,2.25-.67.72-.16,1.35-.24,1.9-.24.61,0,1.16.11,1.62.32.47.22.87.51,1.2.87.33.36.58.77.73,1.23s.24.92.24,1.4-.09.98-.26,1.45c-.17.47-.43.88-.79,1.25-.35.36-.79.65-1.31.87-.52.22-1.14.32-1.84.32h-.72c-.11,0-.24,0-.38-.02-.14-.01-.26-.03-.38-.05v-.75c0-1.05-.21-1.78-.63-2.2s-.96-.63-1.62-.63-1.45.15-2.31.44c-.85.3-1.69.67-2.51,1.13v19.2c0,.55-.27.87-.82.96-.39.07-.8.13-1.25.19-.44.06-.87.1-1.28.14s-.79.06-1.13.07-.6.02-.79.02c-.55,0-.82-.29-.82-.85v-18.62c0-1.21-.19-2.03-.58-2.48-.39-.44-.99-.67-1.81-.67-.25,0-.5,0-.73.02-.24.01-.53.05-.87.12l-.2-1.64Z"/>
          <path d="m407.52,27.38c1.18-.48,2.35-.9,3.5-1.26,1.15-.36,2.23-.67,3.24-.9,1.01-.24,1.94-.42,2.77-.55.83-.12,1.52-.19,2.07-.19,1.64,0,3.02.19,4.13.56,1.12.38,2.02.97,2.7,1.79s1.17,1.86,1.47,3.13c.3,1.26.43,2.78.41,4.56l-.17,11.14c-.02.71.02,1.37.14,1.98.11.61.24,1.22.38,1.81.02.02.03.11.03.27,0,.34-.23.55-.68.61-.3.07-.63.13-1.01.19-.38.06-.76.1-1.14.14s-.77.06-1.16.07-.73.02-1.02.02c-.25,0-.44-.07-.56-.2-.13-.14-.22-.34-.29-.62l-.44-1.64c-.87.39-1.75.75-2.66,1.08-.91.33-1.78.61-2.61.85-.83.24-1.59.43-2.27.56s-1.24.2-1.67.2c-1.21,0-2.25-.22-3.14-.67-.89-.44-1.62-1-2.19-1.67s-.99-1.41-1.26-2.22c-.27-.81-.41-1.58-.41-2.31,0-1.3.23-2.4.7-3.3.47-.9,1.1-1.64,1.9-2.24.71-.52,1.53-.96,2.48-1.3.94-.34,1.99-.61,3.13-.8s2.37-.34,3.69-.43c1.32-.09,2.71-.16,4.17-.21l.03-1.16c.02-1.05-.04-1.99-.19-2.82-.15-.83-.41-1.53-.8-2.1-.39-.57-.91-1-1.57-1.3-.66-.3-1.49-.44-2.49-.44-1.23,0-2.51.14-3.84.41-1.33.27-2.85.68-4.56,1.23l-.75-2.29Zm14.14,10.79c-1.07.07-2.07.13-3.01.19-.93.06-1.79.14-2.56.26-.77.11-1.46.29-2.05.53s-1.07.58-1.43,1.01c-.27.32-.5.72-.68,1.2s-.27,1-.27,1.57c0,.48.07.97.22,1.47.15.5.41.96.79,1.38.38.42.88.77,1.52,1.04.64.27,1.45.41,2.42.41.14,0,.36-.02.67-.07.31-.05.68-.12,1.13-.22.44-.1.94-.24,1.49-.43.55-.18,1.11-.41,1.67-.68l.1-7.65Z"/>
        </g>
        <text class="cls-8" transform="translate(431.57 50.3)"><tspan x="0" y="0"> </tspan></text>
      </g>
      <g>
        <path class="cls-5" d="m31.56,58.58l6.02-24.51h-5l-5.85,24.45c-1.5-.16-2.95-.44-4.34-.82l6.04-24.67h26.71c.02.4.03.81.03,1.22,0,12.76-10.36,23.34-23.6,24.32ZM5.9,24.84h28.9l-.57,2.38h5.05l1.77-7.15H8.7c4.74-6.3,12.43-10.22,20.84-10.22,11.96,0,22.03,7.84,24.84,18.4h-30.1l-6.64,27.64C6.32,50.23.57,36.9,5.9,24.84ZM29.54,6.23C13.3,6.23.1,18.81.1,34.25s13.66,28.48,30.33,28.02c15.84-.46,28.53-12.86,28.53-28.02S45.76,6.23,29.54,6.23Z"/>
        <path class="cls-1" d="m31.56,58.58l6.02-24.51h-5l-5.85,24.45c-1.5-.16-2.95-.44-4.34-.82l6.04-24.67h26.71c.02.4.03.81.03,1.22,0,12.76-10.36,23.34-23.6,24.32ZM5.9,24.84h28.9l-.57,2.38h5.05l1.77-7.15H8.7c4.74-6.3,12.43-10.22,20.84-10.22,11.96,0,22.03,7.84,24.84,18.4h-30.1l-6.64,27.64C6.32,50.23.57,36.9,5.9,24.84ZM29.54,6.23C13.3,6.23.1,18.81.1,34.25s13.66,28.48,30.33,28.02c15.84-.46,28.53-12.86,28.53-28.02S45.76,6.23,29.54,6.23Z"/>
        <polygon class="cls-4" points="33.58 27.97 39.44 27.97 38.2 33.31 32.3 33.31 33.58 27.97"/>
        <polygon class="cls-3" points="33.58 27.97 39.44 27.97 38.2 33.31 32.3 33.31 33.58 27.97"/>
        <g>
          <path class="cls-7" d="m51.99,7.29v-3.19h-1.19v-.43h2.87v.43h-1.2v3.19h-.48Z"/>
          <path class="cls-7" d="m54.14,7.29v-3.62h.72l.86,2.56c.08.24.14.42.17.54.04-.13.11-.32.19-.58l.87-2.52h.64v3.62h-.46v-3.03l-1.05,3.03h-.43l-1.05-3.08v3.08h-.46Z"/>
        </g>
        <path class="cls-2" d="m54.07.28c2.87,0,5.2,2.33,5.2,5.2s-2.33,5.2-5.2,5.2-5.2-2.33-5.2-5.2S51.2.28,54.07.28Z"/>
      </g>
    </g>
  </g>
</svg>